<svg width="144" height="38" viewBox="0 0 144 38" fill="none" xmlns="http://www.w3.org/2000/svg">
<g clip-path="url(#clip0)">
<path d="M144.305 2.61337L124.506 2.60559L128.079 7.74596L144.305 2.61337Z" fill="#B90F2F"/>
<path d="M125.382 8.59819L125.371 16.1686L128.073 14.2345L128.079 7.74597L125.382 8.59819Z" fill="#EE7900"/>
<path d="M124.507 2.6056L121.076 2.60486L125.383 8.59819L128.08 7.74597L124.507 2.6056Z" fill="#F5A300"/>
<path d="M128.08 7.746L128.074 14.2345L144.306 2.6134L128.08 7.746Z" fill="#84221C"/>
<path d="M40.1668 7.07555H40.1989V26.4144H34.4702V18.4774H28.9547V26.4144H23.2259V7.07555H28.9226H28.9547V14.2967H34.4702V7.07555H40.1668ZM44.3299 7.07555V26.4144H50.0597V7.07555H50.028H44.3299ZM106.281 13.7367L111.914 12.0974C111.914 11.5537 111.914 11.0933 111.914 10.8285C112.088 10.7996 112.318 10.7707 112.954 10.7707C113.561 10.7707 114.152 10.9541 114.613 11.3074L120.337 9.63037C119.038 7.60482 116.48 6.76037 113.3 6.76037C110.413 6.76037 106.281 7.07555 106.281 7.07555L106.281 13.7367ZM12.1229 10.1404C10.9156 9.8137 9.08785 9.34296 9.16029 7.85593C9.23385 6.47667 10.3305 5.93259 11.6849 5.93259C13.1471 5.93259 14.2434 6.51259 15.268 7.81926L19.5095 5.17074C17.5712 1.79815 14.4996 0.347778 11.4276 0.347778C7.29627 0.347778 2.87071 2.48704 2.76168 7.85593C2.68775 13.2233 7.84442 15.0011 10.5505 15.6904H10.5135C12.0123 16.0896 13.8786 16.8511 13.7688 18.6996C13.6956 19.897 12.6706 20.8407 11.2084 20.8041C10.0747 20.8041 8.13717 20.623 6.27203 18.0104L2.06641 21.0581C4.44273 25.3022 8.28317 26.4989 11.099 26.4989C15.3774 26.4989 19.9845 24.2137 20.2406 19.0263C20.4602 13.1148 16.1455 11.193 12.1229 10.1404ZM91.5782 16.6163C91.5782 12.1756 92.5898 10.7711 94.5266 10.7711C96.4448 10.7711 97.4249 12.12 97.4686 16.327L103.165 14.6589C102.634 8.81741 99.5989 6.70333 94.5266 6.70333C88.9498 6.70333 85.8024 9.28148 85.8024 16.6167C85.8024 17.7474 85.8779 18.7637 86.028 19.6767L91.6227 18.0389C91.5939 17.6022 91.5782 17.1307 91.5782 16.6163ZM118.326 18.4204C119.338 18.0478 121.274 16.6163 121.274 13.2356C121.274 12.25 121.125 11.3941 120.846 10.6533L115.412 12.5152C115.465 12.7196 115.497 12.9393 115.497 13.1781C115.497 14.8396 114.082 15.5559 113.126 15.5559C112.752 15.5559 112.262 15.5559 111.914 15.5559C111.914 15.0593 111.914 14.3952 111.914 13.7137L106.281 15.6419V26.4144H111.93L111.914 19.3963C112.521 19.3963 113.073 19.3963 113.073 19.3963L116.479 25.1537C116.94 26.0419 117.748 26.5004 118.847 26.5004C120.117 26.5004 121.33 25.9567 122.689 24.753C122.111 24.1793 121.794 24.1219 118.326 18.4204ZM94.5255 22.4311C93.3549 22.4311 92.5255 21.9026 92.0509 20.5211L86.7834 22.3259C88.1149 25.3274 90.7694 26.5004 94.5255 26.5004C100.11 26.5004 103.227 23.937 103.246 16.6848L97.3753 18.6974C97.0859 21.4637 96.1375 22.4311 94.5255 22.4311ZM69.9411 11.3793H74.833V22.9544L80.5621 21.2763V11.3793H85.3693V6.9037H69.9415V11.3793H69.9411ZM69.0774 13.6644C69.0774 18.2215 65.9875 20.1963 61.6829 20.1963C61.2498 20.1963 60.2965 20.1115 59.7185 20.0263V26.4144H54.1156V7.07555C55.2996 6.96074 58.2174 6.76037 61.1053 6.76037C65.7564 6.76037 69.0774 8.99407 69.0774 13.6644ZM63.3005 13.4641C63.3005 11.4019 62.0575 10.7707 60.7577 10.7707C60.1232 10.7707 59.8346 10.7996 59.7185 10.8285C59.7185 11.6304 59.7476 14.9256 59.7185 16.1856C60.0362 16.2433 60.2965 16.2433 60.7875 16.2433C62.087 16.2437 63.3005 15.6426 63.3005 13.4641ZM74.8558 26.4144H80.5632C80.5632 25.5115 80.5599 24.703 80.5584 24.4593L74.8558 26.4144Z" fill="#004865"/>
<path d="M3.22994 32.6844V37.2548H2.64258V32.6844H3.22994ZM5.77915 32.6844L3.92783 34.8363L5.94494 37.2548H5.15072L3.24413 34.8567L5.07454 32.6844H5.77915Z" fill="#504F53"/>
<path d="M9.34251 32.6844L10.3854 35.1237L11.4836 32.6844H12.1467L9.97766 37.2548H9.3903L10.0673 35.7474L8.67188 32.6844H9.34251Z" fill="#504F53"/>
<path d="M16.237 32.6844C16.4073 32.6844 16.5559 32.687 16.6825 32.6915C16.8091 32.6963 16.9219 32.703 17.0208 32.7122C17.1198 32.7215 17.2083 32.7341 17.2867 32.75C17.3647 32.7663 17.4409 32.7856 17.5144 32.8082C17.7676 32.8948 17.9681 33.0504 18.1156 33.2744C18.2631 33.4982 18.3367 33.763 18.3367 34.0693C18.3367 34.3615 18.2698 34.6152 18.1362 34.83C18.0025 35.0448 17.8184 35.1978 17.5835 35.2889C17.51 35.3163 17.4353 35.3393 17.3591 35.3578C17.2829 35.3759 17.1978 35.3896 17.1033 35.3985C17.0089 35.4078 16.8983 35.4148 16.7718 35.4193C16.6452 35.4241 16.4966 35.4263 16.3263 35.4263H16.0014V37.2556H15.4141V32.6852H16.237V32.6844ZM16.3203 34.9185C16.4398 34.9185 16.5414 34.9174 16.6243 34.9152C16.7072 34.9126 16.7796 34.9093 16.842 34.9048C16.9043 34.9004 16.9603 34.8948 17.0115 34.8878C17.0619 34.8807 17.1127 34.8704 17.1635 34.857C17.3386 34.8115 17.4745 34.72 17.5712 34.583C17.6679 34.4459 17.7161 34.2745 17.7161 34.0689C17.7161 33.8815 17.678 33.7215 17.6022 33.5893C17.5264 33.457 17.4192 33.3611 17.2811 33.3015C17.2258 33.2785 17.1705 33.2607 17.1153 33.247C17.06 33.2333 16.9954 33.2219 16.9219 33.2126C16.8483 33.2033 16.7594 33.1978 16.656 33.1956C16.5526 33.193 16.4271 33.1919 16.2796 33.1919H16.0033V34.9185H16.3203Z" fill="#504F53"/>
<path d="M21.7148 32.6844H22.3022V34.5207H22.6271C22.7973 34.5207 22.9459 34.5233 23.0725 34.5278C23.1991 34.5326 23.3096 34.5393 23.4041 34.5485C23.4986 34.5578 23.5837 34.5715 23.6599 34.5896C23.7361 34.6078 23.8107 34.6304 23.8843 34.6582C24.1192 34.7496 24.3033 34.9026 24.4369 35.117C24.5706 35.3319 24.6375 35.5833 24.6375 35.8708C24.6375 36.177 24.5639 36.4419 24.4164 36.6656C24.2689 36.8893 24.0684 37.0445 23.8152 37.1315C23.7417 37.1545 23.6655 37.1737 23.5875 37.1896C23.509 37.2056 23.4205 37.2182 23.3216 37.2274C23.2226 37.2367 23.1099 37.2437 22.9833 37.2482C22.8567 37.253 22.7081 37.2552 22.5378 37.2552H21.7156V32.6844H21.7148ZM22.3022 36.7478H22.5785C22.726 36.7478 22.8515 36.7467 22.9549 36.7445C23.0587 36.7419 23.1472 36.7367 23.2208 36.727C23.2943 36.7182 23.3589 36.7063 23.4142 36.693C23.4695 36.6793 23.5247 36.6607 23.58 36.6382C23.7181 36.5833 23.8253 36.4889 23.9011 36.3537C23.9769 36.2185 24.015 36.0578 24.015 35.8704C24.015 35.6648 23.9668 35.4948 23.8701 35.36C23.7734 35.2256 23.6375 35.1352 23.4624 35.0896C23.4116 35.0759 23.3612 35.0656 23.3104 35.0585C23.2596 35.0519 23.2032 35.0463 23.1409 35.0415C23.0785 35.037 23.0064 35.0337 22.9232 35.0315C22.8403 35.0289 22.7387 35.0278 22.6192 35.0278H22.3015V36.7478H22.3022Z" fill="#504F53"/>
<path d="M30.4681 34.6374V35.1444H28.603V36.7478H30.6683V37.2548H28.0156V32.6844H30.6201V33.1915H28.603V34.637H30.4681V34.6374Z" fill="#504F53"/>
<path d="M34.9656 32.6844C35.1358 32.6844 35.2844 32.687 35.411 32.6915C35.5376 32.6963 35.6504 32.703 35.7493 32.7122C35.8483 32.7215 35.9368 32.7341 36.0152 32.75C36.0932 32.7663 36.1694 32.7856 36.243 32.8082C36.4961 32.8948 36.6966 33.0504 36.8441 33.2744C36.9916 33.4982 37.0652 33.763 37.0652 34.0693C37.0652 34.3615 36.9984 34.6152 36.8647 34.83C36.731 35.0448 36.5469 35.1978 36.312 35.2889C36.2385 35.3163 36.1638 35.3393 36.0876 35.3578C36.0115 35.3759 35.9263 35.3896 35.8318 35.3985C35.7374 35.4078 35.6268 35.4148 35.5003 35.4193C35.3737 35.4241 35.2251 35.4263 35.0548 35.4263H34.7299V37.2556H34.1426V32.6852H34.9656V32.6844ZM35.0484 34.9185C35.1679 34.9185 35.2695 34.9174 35.3524 34.9152C35.4353 34.9126 35.5077 34.9093 35.5701 34.9048C35.6324 34.9004 35.6885 34.8948 35.7396 34.8878C35.79 34.8807 35.8408 34.8704 35.8916 34.857C36.0667 34.8115 36.2026 34.72 36.2993 34.583C36.3961 34.4459 36.4442 34.2745 36.4442 34.0689C36.4442 33.8815 36.4061 33.7215 36.3303 33.5893C36.2545 33.457 36.1474 33.3611 36.0092 33.3015C35.954 33.2785 35.8987 33.2607 35.8434 33.247C35.7882 33.2333 35.7236 33.2219 35.65 33.2126C35.5764 33.2033 35.4876 33.1978 35.3841 33.1956C35.2807 33.193 35.1552 33.1919 35.0077 33.1919H34.7314V34.9185H35.0484Z" fill="#504F53"/>
<path d="M43.1172 33.9936C42.9929 33.4088 42.6568 33.1166 42.1087 33.1166C41.9108 33.1166 41.7323 33.1599 41.5732 33.247C41.4145 33.3337 41.2782 33.457 41.1658 33.617C41.053 33.777 40.9664 33.9711 40.9067 34.1992C40.8466 34.4277 40.8167 34.6855 40.8167 34.9736C40.8167 35.257 40.8466 35.5125 40.9067 35.7407C40.9664 35.9692 41.053 36.1637 41.1658 36.3233C41.2786 36.4833 41.4145 36.6066 41.5732 36.6933C41.7323 36.7799 41.913 36.8237 42.1154 36.8237C42.4287 36.8237 42.6751 36.7262 42.8543 36.5322C43.0339 36.3385 43.1445 36.0514 43.1859 35.6725H43.7315C43.6945 36.2114 43.538 36.6236 43.2617 36.9092C42.9854 37.1948 42.6098 37.3374 42.1355 37.3374C41.8361 37.3374 41.5668 37.2829 41.3271 37.1733C41.0874 37.0637 40.8839 36.9059 40.7159 36.7007C40.5478 36.4948 40.4175 36.247 40.3257 35.957C40.2338 35.667 40.1875 35.3414 40.1875 34.9807C40.1875 34.5651 40.245 34.1962 40.36 33.874C40.475 33.5522 40.6457 33.2881 40.8712 33.0825C41.0321 32.9274 41.2211 32.8085 41.4376 32.7262C41.6542 32.644 41.8798 32.6029 42.1146 32.6029C42.3771 32.6029 42.6154 32.6511 42.8297 32.747C43.0437 32.8429 43.2177 32.9799 43.351 33.1577C43.4432 33.2766 43.5112 33.3977 43.5548 33.5211C43.5985 33.6444 43.6321 33.8018 43.6549 33.9936H43.1172Z" fill="#504F53"/>
<path d="M47.7924 32.6844V37.2548H47.2051V32.6844H47.7924ZM50.3417 32.6844L48.4903 34.8363L50.5075 37.2548H49.7132L47.8066 34.8567L49.637 32.6844H50.3417Z" fill="#504F53"/>
<path d="M55.4198 32.6644L57.0015 37.2552H56.3936L56.0067 36.097H54.2936L53.9067 37.2552H53.2988L54.8806 32.6644H55.4198ZM55.1505 33.3974L54.4526 35.59H55.848L55.1505 33.3974Z" fill="#504F53"/>
<path d="M63.0722 37.2548H62.4852V35.3433H61.7182L60.5991 37.2548H59.8945L61.0756 35.247C60.4632 35.0189 60.157 34.6033 60.157 34.0004C60.157 33.7307 60.2216 33.4933 60.3505 33.2874C60.4793 33.0819 60.6566 32.9337 60.8826 32.8422C60.9606 32.8104 61.039 32.7841 61.1174 32.7633C61.1955 32.7426 61.2843 32.7267 61.3833 32.7156C61.4822 32.7041 61.5976 32.6959 61.7287 32.6915C61.8601 32.687 62.0154 32.6844 62.1951 32.6844H63.0726V37.2548H63.0722ZM62.4852 33.1919H62.1812C62.0199 33.1919 61.8878 33.193 61.7843 33.1956C61.6809 33.1978 61.5931 33.2026 61.5218 33.2093C61.4505 33.2163 61.3896 33.2274 61.3388 33.2433C61.2881 33.2596 61.2377 33.2789 61.1869 33.3015C61.0532 33.3611 60.952 33.45 60.8829 33.5689C60.8138 33.6878 60.7791 33.8293 60.7791 33.9937C60.7791 34.1811 60.8217 34.3396 60.9068 34.4696C60.992 34.6 61.1129 34.6926 61.2694 34.747C61.3202 34.7656 61.3706 34.7804 61.4214 34.7919C61.4718 34.803 61.5297 34.8122 61.5939 34.8189C61.6581 34.8259 61.7354 34.8304 61.8254 34.8326C61.9154 34.8352 62.027 34.8363 62.1603 34.8363H62.4852V33.1919Z" fill="#504F53"/>
<path d="M71.2456 37.2548V37.94H70.6582V36.7685H70.7206C70.9319 36.7685 71.0932 36.6945 71.2041 36.5456C71.3146 36.3974 71.3833 36.1656 71.4114 35.85L71.6739 32.6844H74.1883V36.7682H74.6443V37.9396H74.0573V37.2545H71.2456V37.2548ZM73.601 33.1711H72.2328L71.998 35.9052C71.9748 36.1289 71.9345 36.3096 71.877 36.4467C71.8195 36.5833 71.7403 36.6907 71.6388 36.7685H73.601V33.1711Z" fill="#504F53"/>
<path d="M79.631 32.6025C79.9166 32.6025 80.1769 32.6596 80.4118 32.774C80.6466 32.8881 80.8479 33.0492 81.0163 33.257C81.1839 33.4651 81.3143 33.7136 81.4065 34.004C81.4983 34.294 81.5443 34.6148 81.5443 34.967C81.5443 35.3185 81.4983 35.6407 81.4065 35.9329C81.3143 36.2251 81.1839 36.4755 81.0163 36.6829C80.8479 36.8911 80.6466 37.0518 80.4118 37.1662C80.1769 37.2803 79.9166 37.3374 79.631 37.3374C79.3412 37.3374 79.0772 37.2803 78.8401 37.1662C78.603 37.0518 78.4014 36.8899 78.2356 36.6799C78.0701 36.4699 77.941 36.2174 77.8491 35.9225C77.7569 35.6281 77.7109 35.3003 77.7109 34.9396C77.7109 34.597 77.758 34.2818 77.8525 33.994C77.9469 33.7062 78.078 33.4596 78.2464 33.254C78.4144 33.0481 78.6157 32.8885 78.8506 32.7744C79.0851 32.6596 79.3453 32.6025 79.631 32.6025ZM79.631 33.1096C79.4375 33.1096 79.2617 33.1529 79.1026 33.2399C78.9435 33.327 78.808 33.4511 78.6949 33.6133C78.5817 33.7755 78.4947 33.9696 78.4324 34.1959C78.3704 34.4218 78.339 34.6718 78.339 34.9459C78.339 35.2336 78.3689 35.4936 78.429 35.7266C78.4887 35.9599 78.5754 36.1585 78.6881 36.3229C78.8005 36.487 78.9368 36.6129 79.0955 36.6999C79.2546 36.7866 79.4327 36.8299 79.631 36.8299C79.8248 36.8299 80.0003 36.7855 80.1593 36.6966C80.3184 36.6077 80.4539 36.4822 80.5671 36.3196C80.6802 36.1574 80.7661 35.9622 80.8259 35.7336C80.8856 35.5055 80.9158 35.2496 80.9158 34.9666C80.9158 34.6881 80.8856 34.4333 80.8259 34.2025C80.7661 33.9722 80.6798 33.777 80.5671 33.617C80.4543 33.457 80.3184 33.3325 80.1593 33.2433C80.0003 33.154 79.8244 33.1096 79.631 33.1096Z" fill="#504F53"/>
<path d="M87.7555 33.9936C87.6308 33.4088 87.2947 33.1166 86.747 33.1166C86.5487 33.1166 86.3706 33.1599 86.2115 33.247C86.0524 33.334 85.9165 33.457 85.8037 33.617C85.6906 33.777 85.6047 33.9711 85.545 34.1992C85.4849 34.4277 85.455 34.6855 85.455 34.9736C85.455 35.257 85.4849 35.5125 85.545 35.7407C85.6047 35.9692 85.691 36.1637 85.8037 36.3233C85.9165 36.4833 86.0524 36.6066 86.2115 36.6933C86.3706 36.7799 86.5509 36.8237 86.7533 36.8237C87.067 36.8237 87.313 36.7262 87.4927 36.5322C87.6719 36.3385 87.7828 36.0514 87.8242 35.6725H88.3701C88.3328 36.2114 88.1763 36.6236 87.9004 36.9092C87.6241 37.1948 87.2484 37.3374 86.7742 37.3374C86.4744 37.3374 86.2055 37.2829 85.9658 37.1733C85.7261 37.0637 85.5226 36.9059 85.3542 36.7007C85.1865 36.4948 85.0558 36.247 84.964 35.957C84.8721 35.667 84.8262 35.3414 84.8262 34.9807C84.8262 34.5651 84.8833 34.1962 84.9987 33.874C85.1137 33.5522 85.2843 33.2881 85.5099 33.0825C85.6708 32.9274 85.8598 32.8085 86.0763 32.7262C86.2929 32.644 86.5184 32.6029 86.7533 32.6029C87.0158 32.6029 87.2544 32.6511 87.4687 32.747C87.6823 32.8429 87.8563 32.9799 87.99 33.1577C88.0819 33.2766 88.1498 33.3977 88.1935 33.5211C88.2372 33.6444 88.2708 33.8018 88.294 33.9936H87.7555Z" fill="#504F53"/>
<path d="M94.3796 32.6844V33.1915H93.1776V37.2548H92.5907V33.1915H91.3887V32.6844H94.3796Z" fill="#504F53"/>
<path d="M99.367 32.6644L100.949 37.2552H100.341L99.954 36.097H98.2408L97.854 37.2552H97.2461L98.8278 32.6644H99.367ZM99.0978 33.3974L98.4003 35.59H99.7953L99.0978 33.3974Z" fill="#504F53"/>
<path d="M105.198 32.6844C105.35 32.6844 105.482 32.687 105.592 32.6915C105.703 32.6963 105.802 32.7019 105.889 32.7089C105.976 32.7159 106.053 32.727 106.121 32.743C106.187 32.7593 106.253 32.7763 106.317 32.7945C106.543 32.8722 106.718 33.0015 106.842 33.1819C106.966 33.3622 107.029 33.5782 107.029 33.8293C107.029 34.0896 106.966 34.3 106.842 34.4596C106.718 34.6196 106.524 34.7382 106.262 34.8159C106.607 34.8982 106.861 35.033 107.025 35.2204C107.189 35.4078 107.27 35.6589 107.27 35.9737C107.27 36.2526 107.199 36.497 107.056 36.7067C106.913 36.917 106.722 37.0607 106.483 37.1385C106.405 37.1615 106.329 37.1807 106.255 37.1967C106.181 37.2126 106.095 37.2252 105.996 37.2345C105.897 37.2437 105.778 37.2493 105.64 37.2519C105.502 37.2541 105.334 37.2552 105.136 37.2552H104.279V32.6848H105.198V32.6844ZM105.281 34.6304C105.497 34.6304 105.665 34.6215 105.785 34.6033C105.905 34.5848 106.011 34.5507 106.103 34.5007C106.209 34.4459 106.291 34.3637 106.348 34.2541C106.405 34.1441 106.435 34.0185 106.435 33.877C106.435 33.7307 106.4 33.6041 106.331 33.4967C106.262 33.3896 106.168 33.3107 106.048 33.2604C105.96 33.2282 105.862 33.2063 105.754 33.1952C105.646 33.1837 105.479 33.1778 105.253 33.1778H104.859V34.6304H105.281ZM105.308 36.7615C105.442 36.7615 105.558 36.7593 105.657 36.7544C105.756 36.75 105.843 36.7445 105.916 36.7374C105.99 36.7304 106.054 36.72 106.11 36.7063C106.165 36.693 106.218 36.6745 106.269 36.6519C106.389 36.6015 106.482 36.5126 106.548 36.3845C106.616 36.2567 106.649 36.1082 106.649 35.9393C106.649 35.7567 106.606 35.6 106.521 35.4696C106.435 35.3393 106.315 35.2467 106.158 35.1922C106.107 35.1741 106.058 35.1604 106.01 35.1511C105.961 35.1422 105.905 35.1341 105.84 35.1274C105.776 35.1204 105.703 35.1163 105.619 35.1137C105.537 35.1115 105.435 35.1104 105.316 35.1104H104.86V36.7615H105.308Z" fill="#504F53"/>
<path d="M111.325 32.6844V37.2548H110.738V32.6844H111.325ZM113.874 32.6844L112.023 34.8363L114.04 37.2548H113.245L111.339 34.8567L113.169 32.6844H113.874Z" fill="#504F53"/>
<path d="M118.951 32.6644L120.533 37.2552H119.925L119.538 36.097H117.825L117.438 37.2552H116.83L118.412 32.6644H118.951ZM118.681 33.3974L117.984 35.59H119.379L118.681 33.3974Z" fill="#504F53"/>
</g>
<defs>
<clipPath id="clip0">
<rect width="144" height="38" fill="white"/>
</clipPath>
</defs>
</svg>
