<svg width="15" height="20" viewBox="0 0 15 20" fill="none" xmlns="http://www.w3.org/2000/svg">
<path d="M7.47495 0C3.34 0 -0.0244141 3.29347 -0.0244141 7.34163C-0.0244141 8.39755 0.196364 9.40571 0.631457 10.3384C2.50651 14.3549 6.1015 18.5955 7.1589 19.7994C7.23812 19.8894 7.35362 19.9412 7.47516 19.9412C7.5967 19.9412 7.7122 19.8894 7.79142 19.7994C8.84841 18.5957 12.4434 14.3553 14.3191 10.3384C14.7544 9.40571 14.9749 8.39755 14.9749 7.34163C14.9745 3.29347 11.6101 0 7.47495 0ZM7.47495 11.1549C5.32701 11.1549 3.57933 9.44408 3.57933 7.34143C3.57933 5.23857 5.32701 3.52775 7.47495 3.52775C9.6229 3.52775 11.3706 5.23857 11.3706 7.34143C11.3708 9.44408 9.62311 11.1549 7.47495 11.1549Z" fill="#F3862A"/>
</svg>
