<svg width="21" height="20" viewBox="0 0 21 20" fill="none" xmlns="http://www.w3.org/2000/svg">
<path d="M20.1615 15.4963C20.1049 15.3259 19.7448 15.0748 19.0813 14.7437C18.9016 14.6393 18.6455 14.4974 18.3141 14.3175C17.9824 14.1375 17.6814 13.9717 17.4115 13.8202C17.1411 13.6687 16.8877 13.5219 16.651 13.3801C16.6131 13.3517 16.4947 13.2689 16.2957 13.1313C16.0965 12.9941 15.9285 12.8923 15.7909 12.8258C15.6535 12.7598 15.5184 12.7266 15.3857 12.7266C15.1962 12.7266 14.9595 12.8616 14.6753 13.1313C14.3912 13.4014 14.1305 13.6947 13.8937 14.0122C13.6569 14.3296 13.4057 14.6229 13.1406 14.8928C12.8752 15.1628 12.6571 15.2977 12.4867 15.2977C12.4012 15.2977 12.2945 15.2739 12.1667 15.2268C12.039 15.1795 11.9418 15.139 11.8751 15.1063C11.809 15.0729 11.6955 15.0068 11.5343 14.9071C11.3728 14.8076 11.283 14.7532 11.2641 14.7437C9.96589 14.0238 8.85253 13.1999 7.92377 12.2722C6.99531 11.3439 6.17076 10.2314 5.4506 8.93402C5.44114 8.91507 5.38653 8.82507 5.2871 8.66417C5.18753 8.50313 5.12117 8.38964 5.08801 8.32318C5.05485 8.25696 5.01458 8.15984 4.96728 8.03203C4.91998 7.90422 4.89623 7.79775 4.89623 7.71243C4.89623 7.54208 5.0313 7.32417 5.30139 7.05899C5.57143 6.79396 5.86527 6.54292 6.1826 6.30635C6.50019 6.06978 6.79373 5.80928 7.06387 5.5253C7.33391 5.24117 7.46893 5.00455 7.46893 4.8152C7.46893 4.68271 7.43577 4.54763 7.3695 4.41037C7.30319 4.27281 7.20133 4.10495 7.06387 3.90599C6.92636 3.70713 6.84346 3.58887 6.81499 3.55081C6.673 3.31425 6.52628 3.06096 6.37448 2.79106C6.22268 2.52121 6.05699 2.22041 5.87687 1.88901C5.69689 1.55777 5.55485 1.302 5.4505 1.1221C5.11903 0.459356 4.86795 0.0993537 4.69734 0.0427365C4.63097 0.0143284 4.5314 0 4.39887 0C4.14287 0 3.80891 0.0472639 3.39673 0.14209C2.9844 0.236767 2.65995 0.336071 2.42301 0.4404C1.9492 0.639157 1.44701 1.21677 0.91629 2.17305C0.433018 3.063 0.191406 3.94385 0.191406 4.81495C0.191406 5.07042 0.207985 5.31898 0.241142 5.56067C0.2743 5.80212 0.333545 6.07441 0.418928 6.37749C0.504162 6.68048 0.572916 6.90556 0.624893 7.05212C0.676919 7.19879 0.774052 7.46153 0.916241 7.84044C1.05823 8.21924 1.14361 8.45114 1.17204 8.53636C1.50367 9.46443 1.89693 10.2929 2.35172 11.0221C3.1 12.2342 4.12116 13.4868 5.41461 14.7794C6.7081 16.072 7.96131 17.0924 9.1743 17.8404C9.90391 18.2949 10.7333 18.6878 11.6619 19.0194C11.7472 19.0477 11.9792 19.1328 12.3582 19.2752C12.7372 19.4172 13.0002 19.5143 13.147 19.5664C13.2938 19.6185 13.5191 19.6873 13.8221 19.7726C14.1257 19.8579 14.3979 19.9171 14.6395 19.9505C14.8813 19.9832 15.13 20 15.3857 20C16.2574 20 17.1389 19.7585 18.0296 19.2756C18.9865 18.7454 19.5643 18.2435 19.7633 17.7696C19.868 17.5331 19.9671 17.2088 20.0618 16.7968C20.1569 16.3849 20.2041 16.0512 20.2041 15.7955C20.2044 15.6625 20.1901 15.5632 20.1615 15.4963Z" fill="white"/>
</svg>
