<svg width="23" height="23" viewBox="0 0 23 23" fill="none" xmlns="http://www.w3.org/2000/svg">
<path d="M18.1708 2.81211L19.2848 2.67285C19.7835 2.60996 20.1383 2.15625 20.0799 1.65312C20.0215 1.19043 19.6442 0.813085 19.0602 0.858007L15.7091 1.27578C15.2104 1.33867 14.8555 1.79238 14.9139 2.29101L15.3272 5.68711C15.3901 6.18574 15.8438 6.54512 16.3424 6.48222C16.8411 6.41933 17.2005 5.96562 17.1376 5.4625L16.9848 4.20019C20.1339 6.53613 21.4411 10.5881 20.2327 14.3391C19.0243 18.09 15.4755 20.6641 11.5538 20.673C10.9743 20.673 10.6059 21.0594 10.5924 21.5625C10.5835 22.0656 10.9428 22.4969 11.5538 22.4969C16.2616 22.4969 20.5247 19.4018 21.9712 14.8961C23.4087 10.4443 21.8813 5.62422 18.1708 2.81211Z" fill="#4F4F51"/>
<path d="M7.66803 17.3084C7.60514 16.8098 7.15143 16.4504 6.65279 16.5133C6.15416 16.5762 5.79479 17.0299 5.85768 17.533L6.01041 18.7953C2.86139 16.4594 1.55416 12.4075 2.76256 8.65648C3.97096 4.9055 7.51979 2.33147 11.4415 2.32249C12.021 2.32249 12.3893 1.93616 12.4028 1.43304C12.4118 0.929912 12.0524 0.498662 11.4415 0.498662C6.73815 0.49417 2.47506 3.58929 1.02857 8.09495C-0.408925 12.5557 1.11842 17.3758 4.82897 20.1879L3.7149 20.3272C3.21627 20.3901 2.86139 20.8438 2.91979 21.3469C2.97818 21.8096 3.35553 22.1869 3.93951 22.142L7.29068 21.7243C7.78932 21.6614 8.1442 21.2076 8.0858 20.709L7.66803 17.3084Z" fill="#4F4F51"/>
</svg>
