<svg width="25" height="25" viewBox="0 0 25 25" fill="none" xmlns="http://www.w3.org/2000/svg">
<path d="M12.5 0C5.59643 0 0 5.59643 0 12.5C0 19.4035 5.59643 24.9999 12.5 24.9999C19.4035 24.9999 24.9999 19.4035 24.9999 12.5C24.9926 5.59952 19.4005 0.00737653 12.5 0ZM12.5 23.2143C6.58264 23.2143 1.7857 18.4173 1.7857 12.5C1.7857 6.58264 6.58264 1.7857 12.5 1.7857C18.4173 1.7857 23.2143 6.58264 23.2143 12.5C23.2079 18.4147 18.4147 23.2079 12.5 23.2143Z" fill="#4F4F51"/>
<path d="M8.03588 12.5001C9.0221 12.5001 9.82158 11.7006 9.82158 10.7144C9.82158 9.72819 9.0221 8.92871 8.03588 8.92871C7.04967 8.92871 6.25018 9.72819 6.25018 10.7144C6.25018 11.7006 7.04967 12.5001 8.03588 12.5001Z" fill="#4F4F51"/>
<path d="M16.9645 12.5001C17.9507 12.5001 18.7502 11.7006 18.7502 10.7144C18.7502 9.72819 17.9507 8.92871 16.9645 8.92871C15.9783 8.92871 15.1788 9.72819 15.1788 10.7144C15.1788 11.7006 15.9783 12.5001 16.9645 12.5001Z" fill="#4F4F51"/>
<path d="M15.9191 17.5039C15.6242 17.8991 15.0647 17.9804 14.6695 17.6854C14.6524 17.6727 14.6358 17.6593 14.6197 17.6454C13.357 16.7231 11.643 16.7231 10.3803 17.6454C10.0073 17.9678 9.44342 17.9268 9.121 17.5537C8.79852 17.1806 8.83959 16.6168 9.21265 16.2944C9.22877 16.2804 9.2454 16.267 9.26251 16.2543C11.1737 14.7935 13.8263 14.7935 15.7375 16.2543C16.1327 16.5492 16.214 17.1087 15.9191 17.5039Z" fill="#4F4F51"/>
</svg>
